<svg width="8" height="12" viewBox="0 0 8 12" fill="none" xmlns="http://www.w3.org/2000/svg">
<path d="M7.05211 7.39641C7.31448 7.13405 7.35195 6.75925 7.12707 6.38444C6.93967 6.0846 6.60235 5.93468 6.22754 6.00964C6.07762 6.04712 5.92769 6.12208 5.77777 6.23452C4.61588 7.02161 3.0417 6.98413 1.8798 6.19704C1.80484 6.15956 1.72988 6.12208 1.65492 6.0846C1.24263 5.89719 0.83035 5.97216 0.605466 6.34697C0.343103 6.72177 0.380579 7.13406 0.717903 7.47138C0.792864 7.54634 0.867825 7.58382 0.905306 7.65878L0.942789 7.69626C1.46752 8.10855 2.10469 8.37091 2.92926 8.48335L2.44201 8.9706C2.02972 9.38289 1.57996 9.83265 1.16767 10.2449C1.05523 10.3574 0.905306 10.5448 0.905306 10.8071C0.905306 11.1445 1.09271 11.4818 1.43004 11.6317C1.54248 11.7067 1.65492 11.7067 1.76736 11.7067C1.95476 11.7067 2.17964 11.6317 2.32957 11.4443C2.89177 10.8821 3.34154 10.4323 3.79131 9.98257C3.82879 9.94509 3.82879 9.94509 3.82879 9.94509C3.82879 9.94509 3.86627 9.94509 3.86627 9.98257C4.16611 10.3199 4.50344 10.6197 4.80328 10.9571C4.9532 11.107 5.10312 11.2569 5.25305 11.4068C5.44045 11.5942 5.59037 11.6692 5.81525 11.6692C6.15258 11.7067 6.52738 11.4818 6.67731 11.1445C6.82723 10.8446 6.75227 10.4698 6.4899 10.2449C6.1151 9.87013 5.74029 9.45784 5.32801 9.08304L4.69084 8.44587C5.02816 8.40839 5.40297 8.33343 5.74029 8.18351C6.3025 7.9961 6.71479 7.73374 7.05211 7.39641Z" fill="#9298A4"/>
<path d="M3.82879 6.34696C5.44045 6.34696 6.75227 5.07262 6.75227 3.46096C6.75227 2.67387 6.45242 1.92426 5.89021 1.36205C5.32801 0.799845 4.61588 0.5 3.86627 0.5C2.25461 0.5 0.980269 1.81182 0.942788 3.386C0.942788 4.17309 1.24263 4.88522 1.80484 5.44742C2.32957 6.04711 3.0417 6.34696 3.82879 6.34696ZM3.00422 2.59891C3.2291 2.37403 3.52894 2.26158 3.82879 2.26158C4.50344 2.26158 4.99068 2.78631 4.99068 3.42348C4.99068 4.09813 4.46595 4.58537 3.82879 4.58537C3.15414 4.58537 2.66689 4.06065 2.66689 3.42348C2.66689 3.12364 2.77933 2.82379 3.00422 2.59891Z" fill="#9298A4"/>
<path d="M7.05211 7.39641C7.31448 7.13405 7.35195 6.75925 7.12707 6.38444C6.93967 6.0846 6.60235 5.93468 6.22754 6.00964C6.07762 6.04712 5.92769 6.12208 5.77777 6.23452C4.61588 7.02161 3.0417 6.98413 1.8798 6.19704C1.80484 6.15956 1.72988 6.12208 1.65492 6.0846C1.24263 5.89719 0.83035 5.97216 0.605466 6.34697C0.343103 6.72177 0.380579 7.13406 0.717903 7.47138C0.792864 7.54634 0.867825 7.58382 0.905306 7.65878L0.942789 7.69626C1.46752 8.10855 2.10469 8.37091 2.92926 8.48335L2.44201 8.9706C2.02972 9.38289 1.57996 9.83265 1.16767 10.2449C1.05523 10.3574 0.905306 10.5448 0.905306 10.8071C0.905306 11.1445 1.09271 11.4818 1.43004 11.6317C1.54248 11.7067 1.65492 11.7067 1.76736 11.7067C1.95476 11.7067 2.17964 11.6317 2.32957 11.4443C2.89177 10.8821 3.34154 10.4323 3.79131 9.98257C3.82879 9.94509 3.82879 9.94509 3.82879 9.94509C3.82879 9.94509 3.86627 9.94509 3.86627 9.98257C4.16611 10.3199 4.50344 10.6197 4.80328 10.9571C4.9532 11.107 5.10312 11.2569 5.25305 11.4068C5.44045 11.5942 5.59037 11.6692 5.81525 11.6692C6.15258 11.7067 6.52738 11.4818 6.67731 11.1445C6.82723 10.8446 6.75227 10.4698 6.4899 10.2449C6.1151 9.87013 5.74029 9.45784 5.32801 9.08304L4.69084 8.44587C5.02816 8.40839 5.40297 8.33343 5.74029 8.18351C6.3025 7.9961 6.71479 7.73374 7.05211 7.39641Z" fill="#9298A4"/>
</svg>
