<svg width="11" height="7" viewBox="0 0 11 7" fill="none" xmlns="http://www.w3.org/2000/svg">
<path d="M10.3364 5.55766C10.3364 5.51615 10.2948 5.51615 10.2948 5.47464C10.1288 5.14254 9.7552 4.72743 9.25706 4.27081C9.00799 4.06325 8.88345 3.8972 8.80043 3.81418C8.67589 3.64813 8.6759 3.5236 8.71741 3.35755C8.75893 3.23302 8.92496 3.02546 9.21554 2.65185C9.38159 2.4443 9.46461 2.31977 9.58914 2.19523C10.2118 1.365 10.5024 0.825351 10.4194 0.576282L10.3779 0.534774C10.3364 0.493263 10.2948 0.451752 10.2118 0.451752C10.1288 0.410241 10.0043 0.410241 9.87973 0.451752H8.3023C8.26079 0.451752 8.26078 0.451752 8.17776 0.451752C8.13625 0.451752 8.09474 0.451752 8.09474 0.451752H8.05323H8.01171L7.9702 0.49326C7.92869 0.534772 7.92869 0.53477 7.92869 0.576282C7.76264 1.03291 7.55509 1.40651 7.34753 1.82163C7.22299 2.02918 7.09846 2.23674 6.97393 2.40279C6.84939 2.56884 6.76637 2.69337 6.68334 2.77639C6.60032 2.85941 6.5173 2.90092 6.47578 2.98395C6.43427 3.02546 6.35126 3.06697 6.35126 3.02546C6.30974 3.02546 6.26823 3.02546 6.26823 2.98395C6.22672 2.94244 6.18521 2.90092 6.1437 2.85941C6.10219 2.8179 6.10218 2.73488 6.06067 2.65185C6.06067 2.56883 6.06067 2.48581 6.06067 2.4443C6.06067 2.40279 6.06067 2.27826 6.06067 2.19523C6.06067 2.0707 6.06067 1.98767 6.06067 1.94616C6.06067 1.82163 6.06067 1.65558 6.06067 1.48954C6.06067 1.32349 6.06067 1.19895 6.06067 1.11593C6.06067 1.03291 6.06067 0.908376 6.06067 0.825353C6.06067 0.700819 6.06067 0.617793 6.06067 0.576282C6.06067 0.53477 6.01917 0.45175 6.01917 0.410238C5.97766 0.368727 5.93614 0.327214 5.89463 0.285703C5.85312 0.244191 5.77009 0.244193 5.72858 0.202681C5.52103 0.16117 5.27196 0.119659 4.98138 0.119659C4.3172 0.119659 3.86057 0.161172 3.69452 0.244195C3.6115 0.285707 3.52848 0.327215 3.48697 0.410238C3.40394 0.493261 3.40394 0.534774 3.44545 0.534774C3.65301 0.576286 3.81906 0.659305 3.90208 0.783839L3.9436 0.866867C3.98511 0.908378 3.9851 0.991398 4.02661 1.11593C4.06812 1.24047 4.06812 1.365 4.06812 1.53105C4.06812 1.78012 4.06812 2.02919 4.06812 2.19523C4.06812 2.40279 4.02661 2.52732 4.02661 2.65185C4.02661 2.77639 3.98511 2.85941 3.9436 2.90093C3.90208 2.98395 3.90208 3.02546 3.86057 3.02546C3.86057 3.02546 3.86056 3.06697 3.81905 3.06697C3.77754 3.06697 3.73603 3.10848 3.65301 3.10848C3.6115 3.10848 3.52848 3.06697 3.48697 3.02546C3.40394 2.98395 3.32092 2.90093 3.27941 2.8179C3.19639 2.73488 3.11336 2.61034 3.03034 2.4443C2.94732 2.27825 2.82278 2.11221 2.73975 1.86314L2.65674 1.6971C2.61523 1.61407 2.5322 1.44802 2.44918 1.24047C2.36616 1.03291 2.28313 0.866867 2.20011 0.65931C2.1586 0.576287 2.11709 0.534772 2.07558 0.49326H2.03407C2.03407 0.49326 1.99255 0.451752 1.95104 0.451752C1.90953 0.451752 1.86802 0.410238 1.82651 0.410238H0.332093C0.166047 0.410238 0.0830255 0.451749 0.041514 0.49326L0 0.534774C0 0.534774 0 0.576284 0 0.617796C0 0.659307 2.53304e-06 0.700816 0.041514 0.783839C0.249071 1.28198 0.498139 1.78012 0.747208 2.27825C0.996276 2.73488 1.24535 3.15 1.41139 3.44058C1.61895 3.73116 1.78499 4.02174 1.99255 4.27081C2.20011 4.51987 2.32464 4.68592 2.36615 4.76894C2.44918 4.85196 2.49068 4.89347 2.5322 4.93499L2.65674 5.05952C2.73976 5.14254 2.86429 5.26708 3.03034 5.39161C3.19638 5.51615 3.40394 5.64068 3.6115 5.76521C3.81905 5.88975 4.06813 5.97278 4.3172 6.0558C4.60778 6.13882 4.85684 6.18033 5.10591 6.13882H5.72858C5.85312 6.13882 5.93615 6.09731 6.01917 6.01429L6.06067 5.97277C6.06067 5.93126 6.10218 5.93126 6.10218 5.88975C6.10218 5.84824 6.10218 5.80673 6.10218 5.72371C6.10218 5.55766 6.10219 5.43313 6.1437 5.30859C6.18521 5.18406 6.18521 5.10104 6.22673 5.01801C6.26824 4.93499 6.30974 4.89348 6.35126 4.85196C6.39277 4.81045 6.43428 4.76894 6.43428 4.76894H6.47578C6.55881 4.72743 6.68335 4.76894 6.76637 4.85196C6.8909 4.93499 7.01543 5.05952 7.09846 5.18406C7.18148 5.30859 7.30602 5.43313 7.47207 5.59917C7.63812 5.76522 7.76265 5.88975 7.84567 5.93126L7.9702 6.01429C8.05322 6.0558 8.13625 6.09731 8.26079 6.13882C8.38532 6.18033 8.46834 6.18033 8.55136 6.18033L9.96276 6.13882C10.0873 6.13882 10.2118 6.09731 10.2948 6.0558C10.3779 6.01429 10.4194 5.97277 10.4194 5.88975C10.4194 5.84824 10.4194 5.76522 10.4194 5.72371C10.3364 5.64068 10.3364 5.59917 10.3364 5.55766Z" fill="#9298A4"/>
</svg>
