<svg width="10" height="7" viewBox="0 0 10 7" fill="none" xmlns="http://www.w3.org/2000/svg">
<path d="M9.78985 2.45656C9.78985 2.26262 9.75754 2.03636 9.75754 1.77778C9.72521 1.51919 9.69289 1.26061 9.66056 1.03434C9.59592 0.775757 9.49894 0.581819 9.305 0.420203C9.14339 0.258587 8.91713 0.161614 8.69087 0.129291C7.94743 0.0323213 6.84844 0 5.36158 0C3.87471 0 2.74339 0.0323213 2.03228 0.129291C1.80601 0.161614 1.57975 0.258587 1.41814 0.420203C1.25652 0.581819 1.12723 0.775757 1.06258 1.03434C0.997933 1.26061 0.965614 1.48687 0.965614 1.77778C0.933291 2.03636 0.933289 2.26262 0.933289 2.45656C0.933289 2.6505 0.933289 2.87677 0.933289 3.2C0.933289 3.52323 0.933289 3.78182 0.933289 3.94343C0.933289 4.13737 0.965614 4.36364 0.965614 4.62222C0.997937 4.88081 1.03026 5.13939 1.06258 5.36565C1.12723 5.62424 1.2242 5.81818 1.41814 5.9798C1.57975 6.14141 1.80601 6.23838 2.03228 6.27071C2.77571 6.36768 3.87471 6.4 5.36158 6.4C6.84844 6.4 7.97975 6.36768 8.69087 6.27071C8.91713 6.23838 9.14339 6.14141 9.305 5.9798C9.46662 5.81818 9.59592 5.62424 9.66056 5.36565C9.72521 5.13939 9.75754 4.91313 9.75754 4.62222C9.78986 4.36364 9.78985 4.13737 9.78985 3.94343C9.78985 3.74949 9.78985 3.52323 9.78985 3.2C9.78985 2.87677 9.78985 2.61818 9.78985 2.45656ZM7.0747 3.45859L4.52117 5.04242C4.48885 5.07475 4.4242 5.10707 4.35955 5.10707C4.29491 5.10707 4.26258 5.10707 4.19794 5.07475C4.10097 5.0101 4.03632 4.91313 4.03632 4.78384V1.58384C4.03632 1.45454 4.10097 1.35758 4.19794 1.29293C4.29491 1.22828 4.4242 1.22828 4.52117 1.29293L7.0747 2.87677C7.17167 2.94141 7.23632 3.03838 7.23632 3.13535C7.23632 3.23232 7.17167 3.39394 7.0747 3.45859Z" fill="#9298A4"/>
</svg>
